0
SECTION
2
HEADER
9
$ACADVER
1
AC1015
9
$INSUNITS
70
4
9
$MEASUREMENT
70
1
0
ENDSEC
0
SECTION
2
ENTITIES
0
LWPOLYLINE
8
OUTLINE
90
338
70
1
10
1.16
20
-44.555
10
0.778
20
-46.721
10
0.793
20
-47.424
10
1.076
20
-48.066
10
1.583
20
-48.552
10
2.238
20
-48.807
10
4.404
20
-49.189
10
22.13
20
-52.315
10
24.506
20
-52.734
10
25.125
20
-52.721
10
25.692
20
-52.471
10
26.12
20
-52.024
10
26.345
20
-51.447
10
26.406
20
-51.1
10
26.631
20
-50.523
10
27.059
20
-50.075
10
27.626
20
-49.826
10
28.245
20
-49.813
10
41.53
20
-52.155
10
43.932
20
-52.579
10
44.541
20
-52.566
10
45.098
20
-52.32
10
45.519
20
-51.881
10
45.74
20
-51.313
10
45.8
20
-50.972
10
46.021
20
-50.404
10
46.442
20
-49.965
10
46.999
20
-49.719
10
47.608
20
-49.706
10
53.772
20
-50.793
10
54.425
20
-51.031
10
54.957
20
-51.478
10
55.304
20
-52.079
10
55.425
20
-52.763
10
55.425
20
-69.9
10
55.577
20
-70.665
10
56.011
20
-71.314
10
56.66
20
-71.748
10
57.425
20
-71.9
10
77.623
20
-71.9
10
78.172
20
-72.028
10
78.608
20
-72.386
10
78.841
20
-72.9
10
78.822
20
-73.463
10
78.31
20
-75.374
10
77.741
20
-77.499
10
77.695
20
-78.2
10
77.921
20
-78.865
10
78.384
20
-79.393
10
79.014
20
-79.704
10
81.139
20
-80.273
10
98.525
20
-84.932
10
100.65
20
-85.501
10
101.351
20
-85.547
10
102.016
20
-85.321
10
102.544
20
-84.858
10
102.855
20
-84.228
10
103.424
20
-82.103
10
104.294
20
-78.859
10
104.519
20
-78.613
10
104.851
20
-78.656
10
105.005
20
-78.953
10
105.005
20
-86.579
10
105.157
20
-87.344
10
105.591
20
-87.993
10
106.24
20
-88.427
10
107.005
20
-88.579
10
150.225
20
-88.579
10
150.99
20
-88.427
10
151.639
20
-87.993
10
152.073
20
-87.344
10
152.225
20
-86.579
10
152.225
20
-79.164
10
152.369
20
-78.888
10
152.677
20
-78.847
10
152.887
20
-79.077
10
153.697
20
-82.098
10
154.266
20
-84.223
10
154.577
20
-84.853
10
155.105
20
-85.316
10
155.77
20
-85.542
10
156.471
20
-85.496
10
158.596
20
-84.927
10
175.983
20
-80.268
10
178.108
20
-79.699
10
178.738
20
-79.388
10
179.201
20
-78.86
10
179.427
20
-78.195
10
179.381
20
-77.494
10
178.812
20
-75.369
10
178.298
20
-73.45
10
178.279
20
-72.884
10
178.513
20
-72.368
10
178.951
20
-72.009
10
179.502
20
-71.88
10
199.665
20
-71.88
10
200.43
20
-71.728
10
201.079
20
-71.294
10
201.513
20
-70.645
10
201.665
20
-69.88
10
201.665
20
-52.756
10
201.786
20
-52.072
10
202.133
20
-51.471
10
202.665
20
-51.024
10
203.318
20
-50.787
10
209.591
20
-49.68
10
210.208
20
-49.693
10
210.774
20
-49.942
10
211.201
20
-50.388
10
211.425
20
-50.964
10
211.486
20
-51.311
10
211.71
20
-51.886
10
212.137
20
-52.333
10
212.703
20
-52.581
10
213.32
20
-52.595
10
215.7
20
-52.175
10
228.97
20
-49.835
10
229.585
20
-49.848
10
230.148
20
-50.096
10
230.573
20
-50.54
10
230.796
20
-51.113
10
230.857
20
-51.458
10
231.08
20
-52.031
10
231.505
20
-52.475
10
232.068
20
-52.723
10
232.683
20
-52.736
10
235.07
20
-52.315
10
252.796
20
-49.189
10
254.962
20
-48.807
10
255.617
20
-48.552
10
256.124
20
-48.066
10
256.407
20
-47.424
10
256.422
20
-46.721
10
256.04
20
-44.555
10
255.742
20
-42.867
10
255.806
20
-42.143
10
256.222
20
-41.548
10
256.88
20
-41.241
10
262.703
20
-40.215
10
263.568
20
-40.253
10
264.336
20
-40.652
10
264.863
20
-41.339
10
265.05
20
-42.184
10
265.05
20
-48.75
10
265.202
20
-49.515
10
265.636
20
-50.164
10
266.285
20
-50.598
10
267.05
20
-50.75
10
279.35
20
-50.75
10
280.115
20
-50.598
10
280.764
20
-50.164
10
281.198
20
-49.515
10
281.35
20
-48.75
10
281.35
20
-40.668
10
281.16
20
-39.959
10
280.641
20
-39.44
10
279.933
20
-39.25
10
279.618
20
-39.25
10
278.909
20
-39.06
10
278.39
20
-38.541
10
278.2
20
-37.832
10
278.2
20
-37.226
10
278.326
20
-36.592
10
278.685
20
-36.055
10
279.222
20
-35.696
10
279.856
20
-35.57
10
284.15
20
-35.57
10
284.915
20
-35.418
10
285.564
20
-34.984
10
285.998
20
-34.335
10
286.15
20
-33.57
10
286.15
20
1.03
10
285.998
20
1.795
10
285.564
20
2.444
10
284.915
20
2.878
10
284.15
20
3.03
10
262.25
20
3.03
10
261.485
20
2.878
10
260.836
20
2.444
10
260.402
20
1.795
10
260.25
20
1.03
10
260.25
20
-28.815
10
260.129
20
-29.499
10
259.782
20
-30.1
10
259.25
20
-30.547
10
258.597
20
-30.784
10
254.63
20
-31.484
10
254.176
20
-31.444
10
253.802
20
-31.182
10
253.609
20
-30.769
10
253.424
20
-29.718
10
253.432
20
-29.706
10
253.435
20
-29.706
10
253.443
20
-29.694
10
252.75
20
-25.765
10
249.624
20
-8.039
10
248.932
20
-4.116
10
248.913
20
-4.103
10
248.91
20
-4.103
10
248.891
20
-4.09
10
246.284
20
10.691
10
245.902
20
12.857
10
245.647
20
13.512
10
245.161
20
14.019
10
244.519
20
14.302
10
243.816
20
14.317
10
241.65
20
13.935
10
228.418
20
11.602
10
227.801
20
11.615
10
227.236
20
11.864
10
226.809
20
12.31
10
226.585
20
12.885
10
226.524
20
13.232
10
226.3
20
13.807
10
225.873
20
14.253
10
225.308
20
14.502
10
224.691
20
14.515
10
222.31
20
14.095
10
209.034
20
11.754
10
208.421
20
11.767
10
207.859
20
12.014
10
207.435
20
12.457
10
207.213
20
13.029
10
207.152
20
13.372
10
206.93
20
13.944
10
206.506
20
14.387
10
205.944
20
14.634
10
205.331
20
14.647
10
202.94
20
14.225
10
189.651
20
11.882
10
189.036
20
11.895
10
188.473
20
12.143
10
188.047
20
12.588
10
187.824
20
13.161
10
187.763
20
13.507
10
187.54
20
14.08
10
187.114
20
14.525
10
186.551
20
14.773
10
185.936
20
14.786
10
183.55
20
14.365
10
165.824
20
11.239
10
163.431
20
10.817
10
162.86
20
10.595
10
162.418
20
10.171
10
162.171
20
9.61
10
162.158
20
8.998
10
162.218
20
8.654
10
162.205
20
8.042
10
161.958
20
7.481
10
161.516
20
7.057
10
160.945
20
6.835
10
147.694
20
4.499
10
145.317
20
4.08
10
144.74
20
3.855
10
144.293
20
3.427
10
144.044
20
2.861
10
144.03
20
2.242
10
144.092
20
1.895
10
144.078
20
1.276
10
143.829
20
0.71
10
143.382
20
0.282
10
142.805
20
0.058
10
129.544
20
-2.281
10
128.982
20
-2.38
10
128.288
20
-2.38
10
127.726
20
-2.281
10
114.425
20
0.064
10
113.86
20
0.284
10
113.422
20
0.703
10
113.178
20
1.258
10
113.165
20
1.864
10
113.225
20
2.204
10
113.212
20
2.81
10
112.968
20
3.365
10
112.53
20
3.784
10
111.965
20
4.004
10
109.556
20
4.429
10
96.297
20
6.767
10
95.719
20
6.992
10
95.271
20
7.421
10
95.021
20
7.989
10
95.007
20
8.609
10
95.069
20
8.958
10
95.055
20
9.578
10
94.805
20
10.146
10
94.357
20
10.575
10
93.779
20
10.8
10
91.406
20
11.219
10
73.68
20
14.345
10
71.293
20
14.766
10
70.678
20
14.753
10
70.115
20
14.505
10
69.69
20
14.061
10
69.467
20
13.488
10
69.406
20
13.143
10
69.183
20
12.57
10
68.758
20
12.126
10
68.195
20
11.878
10
67.58
20
11.865
10
54.31
20
14.205
10
51.93
20
14.625
10
51.313
20
14.611
10
50.747
20
14.363
10
50.32
20
13.916
10
50.096
20
13.341
10
50.035
20
12.994
10
49.811
20
12.418
10
49.384
20
11.972
10
48.818
20
11.723
10
48.201
20
11.71
10
34.96
20
14.045
10
32.561
20
14.468
10
31.951
20
14.455
10
31.393
20
14.209
10
30.97
20
13.768
10
30.749
20
13.2
10
30.689
20
12.857
10
30.468
20
12.289
10
30.045
20
11.848
10
29.487
20
11.602
10
28.877
20
11.589
10
15.57
20
13.935
10
13.404
20
14.317
10
12.701
20
14.302
10
12.059
20
14.019
10
11.573
20
13.512
10
11.318
20
12.857
10
10.936
20
10.691
10
8.329
20
-4.093
10
8.315
20
-4.103
10
8.313
20
-4.102
10
8.299
20
-4.112
10
7.606
20
-8.039
10
4.987
20
-22.888
10
4.984
20
-22.891
10
4.984
20
-22.89
10
4.981
20
-22.893
10
4.286
20
-26.829
0
ENDSEC
0
EOF
