0
SECTION
2
HEADER
9
$ACADVER
1
AC1015
9
$INSUNITS
70
4
9
$MEASUREMENT
70
1
0
ENDSEC
0
SECTION
2
ENTITIES
0
LWPOLYLINE
8
OUTLINE
90
123
70
1
10
-3.798
20
-65.048
10
-3.82
20
-65.07
10
-3.82
20
-89.048
10
-3.668
20
-89.813
10
-3.234
20
-90.462
10
-2.585
20
-90.896
10
-1.82
20
-91.048
10
32.23
20
-91.048
10
32.995
20
-91.2
10
33.644
20
-91.634
10
34.078
20
-92.283
10
34.23
20
-93.048
10
34.23
20
-99.148
10
34.382
20
-99.913
10
34.816
20
-100.562
10
35.465
20
-100.996
10
36.23
20
-101.148
10
59.105
20
-101.148
10
59.668
20
-100.997
10
60.079
20
-100.586
10
60.23
20
-100.023
10
60.23
20
-99.773
10
60.381
20
-99.211
10
60.793
20
-98.799
10
61.355
20
-98.648
10
71.06
20
-98.648
10
71.645
20
-98.805
10
72.073
20
-99.233
10
72.23
20
-99.818
10
72.23
20
-100.078
10
72.387
20
-100.663
10
72.815
20
-101.091
10
73.4
20
-101.248
10
93.59
20
-101.248
10
93.701
20
-101.271
10
93.765
20
-101.298
10
93.767
20
-101.298
10
110.335
20
-108.331
10
112.36
20
-109.191
10
113.048
20
-109.334
10
113.738
20
-109.203
10
114.325
20
-108.818
10
114.72
20
-108.237
10
115.58
20
-106.212
10
115.68
20
-105.977
10
115.791
20
-105.874
10
115.942
20
-105.889
10
131.056
20
-114.616
10
131.795
20
-114.867
10
132.574
20
-114.816
10
133.273
20
-114.471
10
133.788
20
-113.884
10
145.034
20
-94.405
10
145.294
20
-93.591
10
145.189
20
-92.743
10
144.741
20
-92.016
10
136.592
20
-83.579
10
136.176
20
-82.939
10
136.03
20
-82.19
10
136.03
20
-59.527
10
136.047
20
-59.27
10
137.183
20
-50.528
10
137.2
20
-50.271
10
137.2
20
-41.944
10
137.263
20
-41.791
10
137.416
20
-41.728
10
137.464
20
-41.728
10
137.617
20
-41.665
10
137.68
20
-41.512
10
137.68
20
-5.128
10
137.528
20
-4.363
10
137.094
20
-3.714
10
136.445
20
-3.28
10
135.68
20
-3.128
10
117.986
20
-3.128
10
117.608
20
-3.027
10
117.331
20
-2.75
10
117.23
20
-2.372
10
117.23
20
-2.204
10
117.129
20
-1.826
10
116.852
20
-1.549
10
116.474
20
-1.448
10
99.355
20
-1.448
10
98.793
20
-1.297
10
98.381
20
-0.886
10
98.23
20
-0.323
10
98.23
20
-0.073
10
98.079
20
0.489
10
97.668
20
0.901
10
97.105
20
1.052
10
80.351
20
1.052
10
79.79
20
1.202
10
79.38
20
1.612
10
79.23
20
2.173
10
79.23
20
2.422
10
79.08
20
2.982
10
78.67
20
3.392
10
78.11
20
3.542
10
54.351
20
3.542
10
53.79
20
3.392
10
53.38
20
2.982
10
53.23
20
2.422
10
53.23
20
2.173
10
53.08
20
1.612
10
52.67
20
1.202
10
52.11
20
1.052
10
36.23
20
1.052
10
35.465
20
0.9
10
34.816
20
0.466
10
34.382
20
-0.183
10
34.23
20
-0.948
10
34.23
20
-5.948
10
34.078
20
-6.713
10
33.644
20
-7.362
10
32.995
20
-7.796
10
32.23
20
-7.948
10
-1.77
20
-7.948
10
-2.535
20
-8.1
10
-3.184
20
-8.534
10
-3.618
20
-9.183
10
-3.77
20
-9.948
10
-3.77
20
-65.026
10
-3.793
20
-65.048
0
ENDSEC
0
EOF
